<?xml version="1.0" standalone="no"?>
<!DOCTYPE svg PUBLIC "-//W3C//DTD SVG 20010904//EN"
 "http://www.w3.org/TR/2001/REC-SVG-20010904/DTD/svg10.dtd">
<svg version="1.0" xmlns="http://www.w3.org/2000/svg"
 width="643.000000pt" height="643.000000pt" viewBox="0 0 643.000000 643.000000"
 preserveAspectRatio="xMidYMid meet">
<metadata>
Created by potrace 1.14, written by Peter Selinger 2001-2017
</metadata>
<g transform="translate(0.000000,643.000000) scale(0.100000,-0.100000)"
fill="#000000" stroke="none">
<path d="M3008 6425 c-2 -1 -43 -5 -91 -9 -48 -4 -93 -9 -100 -11 -7 -2 -35
-6 -64 -9 -29 -3 -74 -10 -100 -16 -26 -5 -59 -12 -73 -14 -77 -13 -264 -64
-394 -107 -250 -83 -525 -218 -738 -360 -91 -60 -193 -134 -214 -153 -7 -6
-55 -46 -107 -90 -52 -43 -146 -131 -209 -195 -347 -356 -591 -754 -755 -1236
-34 -101 -97 -346 -108 -420 -4 -22 -8 -47 -10 -55 -3 -8 -7 -37 -10 -65 -3
-27 -8 -61 -10 -75 -26 -146 -26 -663 0 -795 2 -11 7 -42 10 -70 22 -186 121
-555 194 -720 10 -22 31 -71 47 -110 81 -196 274 -517 411 -686 108 -133 273
-307 390 -413 l33 -30 0 186 0 186 -132 52 c-73 29 -157 62 -185 73 l-53 21 0
379 0 379 23 -14 c12 -9 69 -42 127 -74 210 -119 283 -144 461 -160 l66 -6 0
246 -1 246 -238 0 c-131 0 -238 2 -238 5 0 3 19 40 43 82 107 196 139 312 117
434 -16 89 -69 247 -106 312 -19 33 -16 33 77 1 41 -15 219 -75 397 -135 178
-60 341 -118 364 -130 63 -32 133 -104 159 -162 33 -74 34 -214 2 -273 -42
-78 -114 -121 -218 -131 -33 -3 -62 -7 -64 -9 -4 -3 -4 -555 1 -559 2 -2 32
-6 68 -10 36 -3 76 -8 90 -10 32 -4 112 -14 170 -21 25 -2 59 -6 75 -8 17 -2
59 -7 95 -10 36 -4 72 -9 80 -11 8 -2 49 -7 90 -10 41 -4 78 -10 81 -13 4 -4
9 -43 13 -87 10 -134 26 -207 61 -275 48 -92 182 -130 438 -121 l37 1 -2 491
-3 492 -485 0 c-267 -1 -489 2 -493 4 -4 3 -4 10 1 16 27 33 144 261 204 397
73 164 118 301 142 430 13 72 15 332 2 388 -3 12 -7 48 -10 80 -6 63 -58 356
-75 418 -6 22 -13 55 -16 74 -3 19 -8 43 -11 53 -5 14 18 6 98 -36 56 -30 171
-89 253 -132 83 -43 205 -107 273 -142 l122 -64 0 158 0 158 -53 27 c-28 15
-187 93 -351 173 l-299 146 25 27 c94 104 189 289 224 438 23 100 25 117 28
244 4 134 -6 231 -40 389 -13 63 -23 115 -22 117 2 1 39 -18 83 -43 44 -25
118 -66 165 -91 47 -25 119 -65 160 -88 l75 -43 3 410 2 409 174 0 173 0 -1
-37 c-1 -21 -1 -41 1 -45 2 -4 23 0 46 8 89 33 170 13 277 -66 120 -89 208
-112 294 -76 21 9 40 16 42 16 2 0 4 -101 4 -225 l0 -224 -52 -17 c-93 -28
-186 -26 -280 8 -160 56 -194 64 -280 59 -51 -2 -53 -12 -52 -222 1 -107 2
-196 3 -199 1 -3 18 -14 39 -25 20 -11 55 -31 77 -45 22 -15 82 -51 134 -80
86 -50 96 -58 116 -105 52 -117 134 -374 160 -500 13 -64 13 -211 0 -261 -27
-101 -118 -263 -202 -361 l-28 -32 -136 59 c-75 32 -142 60 -149 62 -11 2 -14
-25 -14 -135 l-1 -137 150 -74 c244 -121 366 -210 481 -351 168 -205 175 -494
21 -805 l-52 -105 -287 -1 c-158 -1 -293 -4 -300 -6 -10 -4 -13 -97 -13 -489
l1 -484 35 -1 c19 -1 87 9 149 22 257 52 370 148 648 553 39 56 72 107 74 112
2 5 17 12 33 15 17 2 37 7 45 9 8 2 31 7 50 10 19 3 46 8 60 10 41 8 209 40
265 50 17 2 39 7 50 9 11 2 55 9 98 16 58 10 77 17 78 29 1 21 1 344 0 354 -1
4 -75 7 -164 7 l-164 0 0 431 0 431 51 -7 c28 -3 101 -16 163 -29 74 -15 113
-19 115 -12 5 16 2 296 -3 300 -2 2 -76 19 -164 38 l-160 35 -2 499 c-1 274 1
505 3 513 3 9 8 10 17 3 22 -18 296 -182 304 -182 5 0 7 112 7 250 l-1 250
138 0 139 0 0 -51 0 -50 51 5 c66 7 105 -11 155 -72 99 -119 133 -138 241
-141 23 -1 23 -2 20 -143 l-2 -142 -50 -25 c-36 -17 -67 -25 -109 -25 l-58 -1
-54 58 c-69 73 -112 91 -186 78 -5 0 -8 -41 -8 -90 l0 -89 175 -123 175 -123
39 -76 c106 -202 105 -399 -3 -517 -19 -22 -50 -47 -68 -57 -33 -17 -35 -16
-175 27 l-143 45 0 -173 0 -172 108 -33 c270 -82 238 -66 281 -141 58 -100 81
-168 75 -224 -4 -48 -34 -129 -64 -175 -8 -14 -22 -38 -30 -54 -16 -31 -35
-41 -96 -50 -83 -13 -268 -47 -271 -50 -2 -2 -2 -55 -1 -118 l3 -115 220 99
c121 54 234 105 250 112 49 22 327 146 372 167 23 10 44 19 47 19 4 0 6 -107
6 -237 l-1 -238 -106 -75 c-257 -182 -470 -391 -590 -577 -78 -122 -111 -209
-177 -463 -20 -74 -39 -146 -43 -160 -6 -23 -3 -22 43 15 170 138 381 355 517
531 193 252 342 517 457 819 35 92 87 249 95 285 2 8 12 51 23 95 24 91 54
254 66 346 27 218 29 610 2 799 -2 14 -7 50 -11 80 -4 30 -9 64 -11 75 -3 11
-7 38 -10 60 -12 81 -84 343 -127 466 -253 716 -751 1321 -1407 1707 -374 219
-814 369 -1230 417 -30 4 -68 8 -85 11 -34 5 -512 14 -517 9z"/>
</g>
</svg>
